<?xml version="1.0" encoding="UTF-8" standalone="no"?>
<svg
   height="24px"
   viewBox="0 -960 960 960"
   width="24px"
   fill="#000000"
   version="1.1"
   id="svg1"
   sodipodi:docname="captureAll.svg"
   inkscape:version="1.3.2 (091e20e, 2023-11-25, custom)"
   xmlns:inkscape="http://www.inkscape.org/namespaces/inkscape"
   xmlns:sodipodi="http://sodipodi.sourceforge.net/DTD/sodipodi-0.dtd"
   xmlns="http://www.w3.org/2000/svg"
   xmlns:svg="http://www.w3.org/2000/svg">
  <defs
     id="defs1" />
  <sodipodi:namedview
     id="namedview1"
     pagecolor="#ffffff"
     bordercolor="#666666"
     borderopacity="1.0"
     inkscape:showpageshadow="2"
     inkscape:pageopacity="0.0"
     inkscape:pagecheckerboard="0"
     inkscape:deskcolor="#d1d1d1"
     inkscape:zoom="22.45064"
     inkscape:cx="10.422865"
     inkscape:cy="12.115467"
     inkscape:current-layer="svg1" />
  <path
     id="path1-3"
     d="M 319.0625 -848.125 L 241.71875 -768.125 L 122.89062 -768.125 C 97.703984 -768.125 76.255607 -759.22436 58.515625 -741.48438 C 40.775643 -723.74439 31.875 -702.29602 31.875 -677.10938 L 31.875 -202.89062 C 31.875 -177.70398 40.775643 -156.17748 58.515625 -138.4375 C 76.255607 -120.69752 97.703984 -111.875 122.89062 -111.875 L 757.1875 -111.875 C 782.37414 -111.875 803.82252 -120.69752 821.5625 -138.4375 C 839.30248 -156.17748 848.125 -177.70398 848.125 -202.89062 L 848.125 -464.6875 L 620.23438 -464.6875 C 621.23055 -456.64306 621.95312 -448.46888 621.95312 -440 C 621.95312 -389.52005 604.22142 -346.57184 568.82812 -311.17188 C 533.42816 -275.77858 490.47995 -258.04688 440 -258.04688 C 389.52005 -258.04687 346.57184 -275.77858 311.17188 -311.17188 C 275.77858 -346.57184 258.125 -389.52005 258.125 -440 C 258.125 -490.47995 275.77858 -533.42816 311.17188 -568.82812 C 346.57184 -604.22142 389.52005 -621.875 440 -621.875 C 446.0718 -621.875 452.037 -621.60581 457.89062 -621.09375 L 457.89062 -848.125 L 319.0625 -848.125 z M 440 -535.70312 C 413.11336 -535.70312 390.48456 -526.42873 372.03125 -507.96875 C 353.57127 -489.51544 344.29688 -466.88664 344.29688 -440 C 344.29688 -413.11336 353.57127 -390.40644 372.03125 -371.95312 C 390.48456 -353.49314 413.11336 -344.29688 440 -344.29688 C 466.88664 -344.29688 489.59356 -353.49314 508.04688 -371.95312 C 526.50686 -390.40644 535.70312 -413.11336 535.70312 -440 C 535.70312 -448.68907 534.66236 -456.87922 532.73438 -464.6875 L 457.89062 -464.6875 L 457.89062 -534.21875 C 452.14577 -535.19789 446.19217 -535.70312 440 -535.70312 z " />
  <g
     inkscape:groupmode="layer"
     id="layer2"
     inkscape:label="Layer 1"
     style="display:inline">
    <path
       d="M 689.40516,-569.78402 V -689.64516 H 569.54402 v -121.2537 H 689.40516 V -930.76 h 121.60183 v 119.86114 H 930.52 v 121.2537 H 811.00699 v 119.86114 z"
       id="path1-8"
       style="stroke-width:1.45058" />
  </g>
</svg>
