<svg xmlns="http://www.w3.org/2000/svg" height="20" viewBox="0 -960 960 960" width="20"><path d="M218.63-218.87h51.24l358.738-358.738-50.76-51L218.63-269.391v50.521Zm-82.761 83.001v-168.305l497.522-497.761q11.478-11.717 25.032-16.956 13.553-5.24 28.435-5.24 14.642 0 28.359 5.24 13.718 5.239 25.674 16.717l61.283 60.565q11.478 11.718 16.837 25.555t5.359 28.335q0 15.162-5.381 29.089-5.38 13.927-16.815 25.239L304.652-135.869H135.869Zm602.87-551.392L687.5-738.739l51.239 51.478ZM602.9-602.9l-25.052-25.708 50.76 51L602.9-602.9Z"/></svg>