<?xml version="1.0" encoding="UTF-8" standalone="no"?>
<svg
   height="24"
   viewBox="0 -960 960 960"
   width="24"
   version="1.1"
   id="svg1"
   sodipodi:docname="left_panel_close_FILL0_wght500_GRAD0_opsz24.svg"
   inkscape:version="1.3.2 (091e20e, 2023-11-25, custom)"
   xmlns:inkscape="http://www.inkscape.org/namespaces/inkscape"
   xmlns:sodipodi="http://sodipodi.sourceforge.net/DTD/sodipodi-0.dtd"
   xmlns="http://www.w3.org/2000/svg"
   xmlns:svg="http://www.w3.org/2000/svg">
  <defs
     id="defs1" />
  <sodipodi:namedview
     id="namedview1"
     pagecolor="#ffffff"
     bordercolor="#666666"
     borderopacity="1.0"
     inkscape:showpageshadow="2"
     inkscape:pageopacity="0.0"
     inkscape:pagecheckerboard="0"
     inkscape:deskcolor="#d1d1d1"
     inkscape:zoom="31.75"
     inkscape:cx="12"
     inkscape:cy="12"
     inkscape:current-layer="svg1" />
  <path
     id="path1"
     d="M 202.89062 -848.125 C 177.70398 -848.125 156.25561 -839.22436 138.51562 -821.48438 C 120.77564 -803.74439 111.875 -782.29602 111.875 -757.10938 L 111.875 -202.89062 C 111.875 -177.70398 120.77564 -156.25561 138.51562 -138.51562 C 156.25561 -120.77564 177.70398 -111.875 202.89062 -111.875 L 757.10938 -111.875 C 782.29602 -111.875 803.74439 -120.77564 821.48438 -138.51562 C 839.22436 -156.25561 848.125 -177.70398 848.125 -202.89062 L 848.125 -757.10938 C 848.125 -782.29602 839.22436 -803.74439 821.48438 -821.48438 C 803.74439 -839.22436 782.29602 -848.125 757.10938 -848.125 L 202.89062 -848.125 z M 409.0625 -757.10938 L 757.10938 -757.10938 L 757.10938 -202.89062 L 409.0625 -202.89062 L 409.0625 -757.10938 z M 666.95312 -647.42188 L 499.29688 -480 L 666.95312 -312.57812 L 666.95312 -647.42188 z " />
</svg>
