<svg xmlns="http://www.w3.org/2000/svg" height="20" viewBox="0 -960 960 960" width="20"><path d="M428.413-279.869H288q-83.054 0-141.592-58.599-58.539-58.599-58.539-141.74 0-83.14 58.539-141.531Q204.946-680.131 288-680.131h140.413v83.001H288.102q-48.847 0-83.039 34.163Q170.87-528.804 170.87-480t34.193 82.967q34.192 34.163 83.039 34.163h140.311v83.001ZM330.5-442.087v-75.826h299v75.826h-299Zm201.087 162.218v-83.001h140.311q48.847 0 83.039-34.163Q789.13-431.196 789.13-480t-34.193-82.967q-34.192-34.163-83.039-34.163H531.587v-83.001H672q83.054 0 141.592 58.599 58.539 58.599 58.539 141.74 0 83.14-58.539 141.531Q755.054-279.869 672-279.869H531.587Z"/></svg>