<?xml version="1.0" encoding="UTF-8" standalone="no"?>
<svg
   height="20"
   viewBox="0 -960 960 960"
   width="20"
   version="1.1"
   id="svg1"
   sodipodi:docname="refresh_FILL0_wght500_GRAD0_opsz20.svg"
   inkscape:version="1.3.1 (91b66b0783, 2023-11-16)"
   xmlns:inkscape="http://www.inkscape.org/namespaces/inkscape"
   xmlns:sodipodi="http://sodipodi.sourceforge.net/DTD/sodipodi-0.dtd"
   xmlns="http://www.w3.org/2000/svg"
   xmlns:svg="http://www.w3.org/2000/svg">
  <defs
     id="defs1" />
  <sodipodi:namedview
     id="namedview1"
     pagecolor="#ffffff"
     bordercolor="#666666"
     borderopacity="1.0"
     inkscape:showpageshadow="2"
     inkscape:pageopacity="0.0"
     inkscape:pagecheckerboard="0"
     inkscape:deskcolor="#d1d1d1"
     inkscape:zoom="38.1"
     inkscape:cx="10"
     inkscape:cy="10"
     inkscape:current-layer="svg1" />
  <path
     id="path1"
     d="m 479.0625,-776.15625 c -82.07192,0 -151.95106,28.85731 -209.625,86.53125 -57.67394,57.67394 -86.53125,127.55242 -86.53125,209.625 0,82.07258 28.85731,151.95106 86.53125,209.625 57.67394,57.67394 127.55308,86.53125 209.625,86.53125 69.3046,0 130.04005,-20.89213 182.25,-62.71875 52.20995,-41.82596 86.46002,-94.84073 102.75,-159 2.638,-10.28999 0.63799,-19.78359 -6,-28.40625 -6.63733,-8.62332 -15.61093,-13.87242 -26.90625,-15.84375 -10.58866,-1.97066 -20.88576,-0.0937 -30.84375,5.625 -9.95799,5.71933 -16.68734,13.68468 -20.25,24 -12.15932,43.92729 -36.60162,80.45578 -73.40625,109.59375 -36.80396,29.1373 -79.34713,43.6875 -127.59375,43.6875 -59.20261,0 -109.58929,-20.71429 -151.03125,-62.15625 C 286.58929,-370.50446 265.875,-420.79739 265.875,-480 c 0,-59.20261 20.71429,-109.49554 62.15625,-150.9375 41.44196,-41.44196 91.82864,-62.15625 151.03125,-62.15625 36.5093,0 70.0582,8.3641 100.6875,25.21875 30.62997,16.85532 55.57294,39.49836 74.90625,67.875 H 563.0625 c -10.74199,0 -19.73334,3.64809 -27,10.96875 -7.26666,7.32133 -10.96875,16.29226 -10.96875,26.90625 0,10.68266 3.65367,19.67959 10.875,26.90625 7.22066,7.22599 16.13851,10.78125 26.8125,10.78125 H 735.5625 c 11.63466,0 21.51526,-3.98401 29.53125,-12 8.01599,-8.01599 12,-17.80284 12,-29.4375 v -172.3125 c 0,-10.74199 -3.69584,-19.73334 -11.0625,-27 -7.36666,-7.26666 -16.41176,-10.96875 -27.09375,-10.96875 -10.68266,0 -19.58584,3.70209 -26.8125,10.96875 -7.22599,7.26666 -10.875,16.25801 -10.875,27 v 64.125 c -27.30464,-31.11597 -59.93279,-55.86577 -97.96875,-74.34375 -38.03596,-18.47865 -79.45013,-27.75 -124.21875,-27.75 z" />
</svg>
