<svg xmlns="http://www.w3.org/2000/svg" height="20" viewBox="0 -960 960 960" width="20"><path d="m400-338.847 80-80 80 80L597.153-376l-80-80 80-80L560-573.153l-80 80-80-80L362.847-536l80 80-80 80L400-338.847Zm-75.691 174.846q-27.008 0-45.658-18.65-18.65-18.65-18.65-45.658V-696h-48v-51.999H384v-43.384h192v43.384h171.999V-696h-48v467.257q0 27.742-18.65 46.242-18.65 18.5-45.658 18.5H324.309ZM648-696H312v467.691q0 4.616 3.846 8.463 3.847 3.846 8.463 3.846h311.382q4.616 0 8.463-3.846 3.846-3.847 3.846-8.463V-696Zm-336 0V-216v-480Z"/></svg>