<?xml version="1.0" encoding="UTF-8" standalone="no"?>
<svg
   fill="none"
   height="24"
   viewBox="0 0 24 24"
   width="24"
   version="1.1"
   id="svg3"
   sodipodi:docname="floppy-disc-2.svg"
   inkscape:version="1.3.1 (91b66b0783, 2023-11-16)"
   xmlns:inkscape="http://www.inkscape.org/namespaces/inkscape"
   xmlns:sodipodi="http://sodipodi.sourceforge.net/DTD/sodipodi-0.dtd"
   xmlns="http://www.w3.org/2000/svg"
   xmlns:svg="http://www.w3.org/2000/svg">
  <defs
     id="defs3" />
  <sodipodi:namedview
     id="namedview3"
     pagecolor="#ffffff"
     bordercolor="#666666"
     borderopacity="1.0"
     inkscape:showpageshadow="2"
     inkscape:pageopacity="0.0"
     inkscape:pagecheckerboard="0"
     inkscape:deskcolor="#d1d1d1"
     inkscape:zoom="31.75"
     inkscape:cx="12"
     inkscape:cy="12"
     inkscape:current-layer="g3" />
  <g
     stroke="#141414"
     stroke-linecap="round"
     stroke-linejoin="round"
     stroke-width="1.5"
     id="g3">
    <path
       id="path3"
       d="m 8.75,5 v 3.25 m 0,10.75 v -3.25 c 0,-0.5523 0.44772,-1 1,-1 h 4.5 c 0.5523,0 1,0.4477 1,1 V 19 m -8.5,0.25 h 10.5 c 1.1046,0 2,-0.8954 2,-2 V 9.82843 c 0,-0.53044 -0.2107,-1.03914 -0.5858,-1.41422 L 15.5858,5.33579 C 15.2107,4.96071 14.702,4.75 14.1716,4.75 H 6.75 c -1.10457,0 -2,0.89543 -2,2 v 10.5 c 0,1.1046 0.89543,2 2,2 z" />
  </g>
</svg>
